<?xml version="1.0" standalone="no"?><!-- Generator: Gravit.io --><svg xmlns="http://www.w3.org/2000/svg" xmlns:xlink="http://www.w3.org/1999/xlink" style="isolation:isolate" viewBox="0 0 698.875 246.25" width="698.875" height="246.25"><g><path d=" M 170 226.25 L 76.25 226.25 C 65.938 226.25 57.5 217.813 57.5 207.5 L 57.5 38.75 C 57.5 28.438 65.938 20 76.25 20 L 170 20 C 180.313 20 188.75 28.438 188.75 38.75 L 188.75 207.5 C 188.75 217.813 180.313 226.25 170 226.25 Z " fill="none" vector-effect="non-scaling-stroke" stroke-width="4" stroke="rgb(0,0,0)" stroke-linejoin="miter" stroke-linecap="butt" stroke-miterlimit="10"/><circle vector-effect="non-scaling-stroke" cx="123.12499999999997" cy="205.12499999999991" r="9.375" fill="rgb(0,0,0)"/></g><g><path d=" M 226.25 76.25 L 226.25 170 C 226.25 180.313 217.813 188.75 207.5 188.75 L 38.75 188.75 C 28.438 188.75 20 180.313 20 170 L 20 76.25 C 20 65.937 28.438 57.5 38.75 57.5 L 207.5 57.5 C 217.813 57.5 226.25 65.937 226.25 76.25 Z " fill="none" vector-effect="non-scaling-stroke" stroke-width="4" stroke="rgb(0,0,0)" stroke-linejoin="miter" stroke-linecap="butt" stroke-miterlimit="10"/><path d=" M 205.125 132.5 C 199.951 132.5 195.75 128.299 195.75 123.125 C 195.75 117.951 199.951 113.75 205.125 113.75 C 210.299 113.75 214.5 117.951 214.5 123.125 C 214.5 128.299 210.299 132.5 205.125 132.5 Z " fill="rgb(0,0,0)"/></g><g><path d=" M 678.875 76.25 L 678.875 170 C 678.875 180.313 670.438 188.75 660.125 188.75 L 491.375 188.75 C 481.063 188.75 472.625 180.313 472.625 170 L 472.625 76.25 C 472.625 65.937 481.063 57.5 491.375 57.5 L 660.125 57.5 C 670.438 57.5 678.875 65.937 678.875 76.25 Z " fill="none" vector-effect="non-scaling-stroke" stroke-width="4" stroke="rgb(0,0,0)" stroke-linejoin="miter" stroke-linecap="butt" stroke-miterlimit="10"/><path d=" M 657.75 132.5 C 652.576 132.5 648.375 128.299 648.375 123.125 C 648.375 117.951 652.576 113.75 657.75 113.75 C 662.924 113.75 667.125 117.951 667.125 123.125 C 667.125 128.299 662.924 132.5 657.75 132.5 Z " fill="rgb(0,0,0)"/></g><path d=" M 155.175 151.325 L 155.175 151.325 Q 155.575 152.125 155.575 153.025 L 155.575 153.025 L 155.575 153.025 Q 155.575 154.525 154.425 155.525 L 154.425 155.525 L 154.425 155.525 Q 153.275 156.525 151.675 156.525 L 151.675 156.525 L 151.675 156.525 Q 149.175 156.525 148.175 154.125 L 148.175 154.125 L 141.075 137.925 L 103.375 137.925 L 96.175 154.125 L 96.175 154.125 Q 95.175 156.525 92.675 156.525 L 92.675 156.525 L 92.675 156.525 Q 91.075 156.525 89.875 155.475 L 89.875 155.475 L 89.875 155.475 Q 88.675 154.425 88.675 152.925 L 88.675 152.925 L 88.675 152.925 Q 88.675 152.125 89.075 151.325 L 89.075 151.325 L 117.675 87.725 L 117.675 87.725 Q 118.275 86.325 119.475 85.625 L 119.475 85.625 L 119.475 85.625 Q 120.675 84.925 122.075 84.925 L 122.075 84.925 L 122.075 84.925 Q 123.575 84.925 124.775 85.675 L 124.775 85.675 L 124.775 85.675 Q 125.975 86.425 126.575 87.725 L 126.575 87.725 L 155.175 151.325 L 155.175 151.325 Z  M 122.175 95.225 L 106.375 131.125 L 138.075 131.125 L 122.175 95.225 L 122.175 95.225 Z " fill-rule="evenodd" fill="rgb(242,151,13)"/><path d=" M 589.75 119.825 L 589.75 119.825 Q 595.85 121.425 599.2 125.825 L 599.2 125.825 L 599.2 125.825 Q 602.55 130.225 602.55 136.825 L 602.55 136.825 L 602.55 136.825 Q 602.55 146.125 596.45 151.075 L 596.45 151.075 L 596.45 151.075 Q 590.35 156.025 579.15 156.025 L 579.15 156.025 L 553.95 156.025 L 553.95 156.025 Q 552.05 156.025 550.9 154.925 L 550.9 154.925 L 550.9 154.925 Q 549.75 153.825 549.75 152.025 L 549.75 152.025 L 549.75 89.525 L 549.75 89.525 Q 549.75 87.725 550.9 86.625 L 550.9 86.625 L 550.9 86.625 Q 552.05 85.525 553.95 85.525 L 553.95 85.525 L 578.05 85.525 L 578.05 85.525 Q 588.95 85.525 594.95 90.325 L 594.95 90.325 L 594.95 90.325 Q 600.95 95.125 600.95 103.925 L 600.95 103.925 L 600.95 103.925 Q 600.95 109.625 598 113.725 L 598 113.725 L 598 113.725 Q 595.05 117.825 589.75 119.825 L 589.75 119.825 L 589.75 119.825 Z  M 557.85 92.325 L 557.85 116.825 L 576.85 116.825 L 576.85 116.825 Q 584.75 116.825 588.8 113.625 L 588.8 113.625 L 588.8 113.625 Q 592.85 110.425 592.85 104.325 L 592.85 104.325 L 592.85 104.325 Q 592.85 92.325 576.85 92.325 L 576.85 92.325 L 557.85 92.325 L 557.85 92.325 Z  M 578.35 149.225 L 578.35 149.225 Q 586.65 149.225 590.6 146.175 L 590.6 146.175 L 590.6 146.175 Q 594.55 143.125 594.55 136.625 L 594.55 136.625 L 594.55 136.625 Q 594.55 123.625 578.35 123.625 L 578.35 123.625 L 557.85 123.625 L 557.85 149.225 L 578.35 149.225 L 578.35 149.225 Z " fill-rule="evenodd" fill="rgb(242,151,13)"/><g><line x1="388.27" y1="101.466" x2="308.855" y2="101.466" vector-effect="non-scaling-stroke" stroke-width="4" stroke="rgb(0,0,0)" stroke-linejoin="miter" stroke-linecap="butt" stroke-miterlimit="10"/><path d=" M 368.362 79.808 L 390.02 101.466 L 368.362 123.125" fill="none" vector-effect="non-scaling-stroke" stroke-width="4" stroke="rgb(0,0,0)" stroke-linejoin="miter" stroke-linecap="butt" stroke-miterlimit="10"/></g><g><line x1="310.605" y1="158.341" x2="390.02" y2="158.341" vector-effect="non-scaling-stroke" stroke-width="4" stroke="rgb(0,0,0)" stroke-linejoin="miter" stroke-linecap="butt" stroke-miterlimit="10"/><path d=" M 330.513 136.683 L 308.855 158.341 L 330.513 180" fill="none" vector-effect="non-scaling-stroke" stroke-width="4" stroke="rgb(0,0,0)" stroke-linejoin="miter" stroke-linecap="butt" stroke-miterlimit="10"/></g></svg>