<?xml version="1.0" standalone="no"?><!-- Generator: Gravit.io --><svg xmlns="http://www.w3.org/2000/svg" xmlns:xlink="http://www.w3.org/1999/xlink" style="isolation:isolate" viewBox="0 0 590 632" width="590" height="632"><defs><clipPath id="_clipPath_8pjDhd5F3wzOhGmLTb6IWPj8K0NIomzO"><rect width="590" height="632"/></clipPath></defs><g clip-path="url(#_clipPath_8pjDhd5F3wzOhGmLTb6IWPj8K0NIomzO)"><g><path d=" M 126.553 153.506 L 126.719 153.285 C 137.676 160.312 153.032 165.652 173.202 166.814 C 176.522 166.953 179.925 166.814 179.897 166.814 C 183.798 166.704 185.984 166.123 190.079 166.787 C 201.285 168.557 206.929 177.688 217.47 184.273 C 211.439 168.142 193.897 161.779 187.506 150.462 C 180.893 138.51 171.043 138.233 166.727 123.957 C 162.66 110.814 151.261 98.889 134.356 94.822 L 134.411 94.545 C 147.83 96.51 159.146 103.953 166.229 114.909 C 169.826 120.526 170.103 123.348 171.791 126.447 C 174.281 131.067 178.403 133.806 182.47 137.043 C 182.028 130.514 176.605 124.15 177.794 114.134 C 178.265 111.395 178.68 108.822 176.854 102.265 C 173.672 90.561 165.814 75.233 163.158 63.806 L 163.435 63.723 C 168.609 78.692 182.387 99.304 182 111.949 C 182 112.474 181.806 113.941 181.751 114.605 C 181.004 124.621 188.474 131.676 186.593 140.585 C 188.779 142.688 190.688 144.984 192.348 147.64 C 199.126 158.265 221.897 165.237 226.379 188.617 C 227.624 189.087 230.142 189.917 230.723 190.166 C 235.621 192.075 238.775 193.929 238.747 193.901 C 251.004 200.652 257.976 210.225 275.103 216.921 C 274.3 208.178 274.162 201.953 274.162 201.925 C 268.324 195.783 262.486 188.561 259.719 180.621 C 252.221 173.455 246.937 169.47 240.933 164.573 C 231.111 156.522 230.281 154.447 229.202 153.34 C 229.174 153.312 227.791 151.32 227.818 151.376 C 226.988 150.241 226.13 148.83 222.976 146.838 C 216.806 142.826 206.625 140.253 199.403 138.953 L 199.431 138.676 C 209.281 138.427 223.557 140.336 230.751 147.474 C 231.055 147.806 233.103 150.213 233.075 150.186 C 234.569 151.68 235.565 152.87 239.549 155.885 C 237.945 143.213 235.814 134.249 227.735 127.138 L 225.826 125.478 C 215.949 117.012 220.071 101.213 220.486 88.68 L 220.763 88.68 C 221.15 100.881 218.439 115.213 226.711 122.628 C 228.759 124.344 227.514 123.265 229.589 124.87 C 240.545 133.281 242.925 145.565 245.553 160.174 C 250.119 163.328 253.992 166.067 258.032 169.249 C 258.668 158.043 267.411 144.569 276.265 139.921 C 275.545 123.763 278.561 121.383 277.787 107.771 C 277.15 96.399 273.581 85.858 269.874 79.909 C 267.494 75.87 264.672 72.771 263.178 71.553 L 262.292 70.779 C 249.704 61.482 218.826 53.486 216.613 36.387 L 216.889 36.332 C 220.541 53.376 253.19 58.356 266.111 67.984 C 274.632 74.154 283.735 90.036 284.98 109.597 C 290.957 97.34 289.02 83.589 299.644 77.391 L 300.364 76.976 L 300.945 76.7 C 291.704 60.348 282.047 62.146 272.336 42.806 C 269.901 37.909 267.771 32.016 266.83 26.814 L 267.107 26.759 C 268.186 30.771 270.621 36.636 273.885 41.949 C 285.119 60.459 294.775 57.387 305.676 74.984 C 319.925 70.557 329.968 67.542 329.83 50.304 L 329.83 48.838 L 330.107 48.81 C 332.569 67.569 323.328 72.411 307.696 78.581 C 307.806 78.775 307.889 78.996 308 79.19 C 315.083 93.771 310.352 104.866 310.186 105.779 C 307.281 116.292 310.075 128.826 304.209 138.316 C 317.822 138.925 325.929 133.64 338.49 122.794 C 341.921 115.877 344.964 107.19 342.253 99.885 C 340.206 93.66 336.83 83.672 339.763 75.123 C 340.648 72.549 342.17 70.198 344.19 68.482 L 344.383 68.676 C 340.98 72.688 340.261 77.696 341.036 82.98 C 343.111 96.98 350.443 99.526 347.87 113.913 C 363.917 98.779 393.605 94.49 394.601 78.692 C 394.628 78 394.684 78.304 394.711 76.229 C 394.545 73.213 394.49 71.304 392.83 64.332 L 393.107 64.221 C 405.889 90.008 389.676 95.735 364.858 111.174 C 367.375 110.953 369.755 110.98 372.577 111.368 C 392.802 103.067 394.518 104.506 395.791 104.174 C 395.818 104.174 397.589 104.174 397.478 104.174 L 398.059 104.229 C 401.13 104.561 402.68 105.253 404.949 106.581 C 412.64 111.202 421.245 118.451 432.119 111.976 L 432.285 112.198 C 423.929 118.976 414.771 115.739 405.419 110.704 C 402.209 108.988 401.047 108.186 397.423 108.13 C 397.395 108.13 396.04 108.241 396.123 108.213 C 394.933 108.49 392.747 108.186 380.877 113.526 C 387.877 116.376 390.976 120.498 390.949 120.47 C 390.976 120.498 391.64 121.3 391.613 121.245 C 399.968 131.095 408.711 137.874 420.996 133.723 L 421.107 134 C 409.846 139.617 399.692 134.581 390.534 126.059 C 389.095 124.704 387.628 123.265 387.656 123.293 C 387.628 123.265 387.075 122.767 387.103 122.794 C 382.565 118.644 373.13 115.794 363.087 118.008 L 361.87 118.312 C 356.834 119.889 353.957 121.079 349.364 124.233 C 340.261 133.64 328.723 141.498 329.83 140.723 L 329.553 140.889 C 333.178 141.692 335.391 142.771 338.075 144.625 C 340.814 146.81 343.083 149.245 343.055 149.217 C 351.162 156.881 376.229 160.893 392.304 154.945 L 392.415 155.194 C 377.917 162.802 350.415 162.138 339.459 153.146 C 334.312 148.664 332.625 148.304 332.652 148.304 C 328.308 146.451 323.024 146.672 316.217 146.81 C 303.545 149.937 293.419 146.34 285.534 147.64 C 286.308 152.067 286.806 154.889 287.277 157.933 C 290.541 179.735 283.569 176.138 288.273 206.269 C 299.174 204.526 306.727 199.435 315.858 193.431 C 322.028 181.561 327.81 166.925 339.901 164.656 L 339.984 164.933 C 330.383 168.115 326.565 179.099 323.19 188.838 C 336.249 181.285 343.858 181.008 360.929 180.759 C 363.53 180.842 375.455 180.953 385.083 183.415 L 385.028 183.692 C 370.281 181.866 348.783 184.522 339.542 187.593 L 338.767 187.87 C 321.613 193.984 314.198 210.17 290.071 216.008 C 295.079 240.909 298.98 250.538 300.419 267.221 C 302.024 286.617 298.565 307.202 296.241 323 L 268.186 323 C 283.458 268.466 281.19 270.237 276.237 227.905 C 254.241 219.854 246.992 208.344 234.625 200.874 C 234.597 200.846 233.435 200.182 233.518 200.21 C 224.221 194.953 218.743 195.7 205.656 183.968 C 198.186 177.328 194.202 172.459 185.459 172.182 C 184.379 172.182 180.783 172.237 180.644 172.237 C 180.34 172.237 177.047 172.127 177.075 172.127 C 161.415 171.49 139.834 165.126 126.553 153.506 Z  M 284.289 137.431 C 287.443 136.988 291.067 137.182 294.138 137.459 C 301.166 132.783 300.585 122.628 301.913 112.668 C 303.213 102.874 304.957 103.012 305.648 96.427 C 306.119 92.111 305.399 86.632 302.854 80.684 C 291.427 87.241 298.814 105.806 284.676 121.964 C 284.621 123.154 283.652 129.13 284.289 137.431 Z  M 276.652 175.17 L 276.929 174.063 C 278.506 165.901 278.368 162.221 277.289 152.372 C 276.486 153.229 275.49 154.613 275.352 154.806 C 267.079 166.095 267.328 174.285 274.826 184.66 C 274.826 184.632 275.296 180.233 276.652 175.17 Z " fill="rgb(89,28,6)"/><g/><g><path d=" M 154.166 61.095 C 149.85 56.142 152.838 49.53 149.85 46.459 C 155.107 45.13 160.087 48.561 163.739 52.767 C 165.925 55.285 165.787 59.047 163.462 61.372 C 163.13 57.498 161.028 53.486 159.202 51.937 C 160.917 53.791 162.605 58.383 162.162 62.368 C 159.589 63.917 156.213 63.447 154.166 61.095 Z " fill="rgb(149,219,14)"/></g><g><path d=" M 216.64 51.854 C 212.711 57.111 205.628 55.589 203.249 59.158 C 200.842 54.289 203.138 48.727 206.458 44.245 C 208.451 41.561 212.158 40.925 214.925 42.696 C 211.217 43.858 207.731 46.735 206.597 48.838 C 208.036 46.763 212.186 44.134 216.17 43.747 C 218.245 45.933 218.494 49.364 216.64 51.854 Z " fill="rgb(43,186,53)"/></g><g><path d=" M 382.676 86.66 C 376.229 85.415 374.514 78.36 370.281 77.779 C 373.628 73.518 379.632 73.158 385.111 74.209 C 388.375 74.846 390.589 77.917 390.202 81.182 C 387.545 78.332 383.423 76.451 381.043 76.368 C 383.534 76.755 387.711 79.356 389.787 82.787 C 388.68 85.553 385.719 87.269 382.676 86.66 Z " fill="rgb(43,186,53)"/></g><g><path d=" M 311.874 187.759 C 305.704 189.972 300.613 184.771 296.684 186.431 C 297.376 181.063 302.383 177.66 307.613 175.806 C 310.767 174.7 314.198 176.194 315.526 179.209 C 311.791 178.13 307.281 178.601 305.178 179.735 C 307.53 178.794 312.427 178.905 315.968 180.787 C 316.494 183.747 314.806 186.708 311.874 187.759 Z " fill="rgb(71,137,37)"/></g><g><path d=" M 239.356 66.462 C 239.466 73.02 232.937 76.174 233.241 80.435 C 228.372 78.055 226.767 72.245 226.684 66.684 C 226.628 63.336 229.174 60.569 232.439 60.265 C 230.198 63.447 229.229 67.874 229.617 70.225 C 229.478 67.708 231.166 63.087 234.071 60.32 C 237.032 60.818 239.3 63.364 239.356 66.462 Z " fill="rgb(149,219,14)"/></g><g><g><path d=" M 269.735 113.138 C 264.506 117.095 258.115 113.692 254.85 116.459 C 253.881 111.119 257.617 106.387 262.071 103.04 C 264.727 101.02 268.462 101.435 270.648 103.897 C 266.775 103.98 262.597 105.806 260.964 107.522 C 262.929 105.917 267.632 104.561 271.589 105.253 C 272.917 107.909 272.225 111.257 269.735 113.138 Z " fill="rgb(43,186,53)"/></g></g><g><path d=" M 281.743 60.265 C 283.514 66.573 277.98 71.277 279.364 75.316 C 274.051 74.237 271.036 69.036 269.514 63.668 C 268.628 60.459 270.372 57.111 273.443 56.004 C 272.087 59.656 272.253 64.194 273.249 66.352 C 272.474 63.945 272.945 59.047 275.047 55.644 C 278.063 55.395 280.913 57.277 281.743 60.265 Z " fill="rgb(71,137,37)"/></g><g><path d=" M 125.917 98.308 C 119.387 97.81 116.842 91.004 112.581 90.949 C 115.403 86.328 121.324 85.249 126.885 85.664 C 130.206 85.913 132.751 88.708 132.751 91.972 C 129.791 89.455 125.474 88.071 123.095 88.265 C 125.613 88.376 130.067 90.451 132.53 93.605 C 131.783 96.51 129.016 98.557 125.917 98.308 Z " fill="rgb(149,219,14)"/></g><g><path d=" M 155.549 119.502 C 152.644 125.395 145.395 125.202 143.735 129.13 C 140.498 124.787 141.715 118.893 144.178 113.885 C 145.644 110.897 149.186 109.569 152.229 110.814 C 148.798 112.64 145.893 116.099 145.174 118.395 C 146.198 116.099 149.822 112.751 153.668 111.617 C 156.047 113.415 156.905 116.735 155.549 119.502 Z " fill="rgb(71,137,37)"/></g><g><path d=" M 257.838 23.051 C 253.964 17.739 257.506 11.403 254.794 8.111 C 260.162 7.253 264.81 11.071 268.075 15.581 C 270.04 18.293 269.569 22 267.079 24.13 C 267.079 20.257 265.336 16.051 263.648 14.364 C 265.198 16.356 266.498 21.087 265.696 25.016 C 262.984 26.316 259.664 25.569 257.838 23.051 Z " fill="rgb(149,219,14)"/></g><g><path d=" M 384.142 61.233 C 379.992 56.17 383.146 49.64 380.269 46.486 C 385.581 45.324 390.423 48.893 393.964 53.182 C 396.067 55.755 395.818 59.518 393.439 61.787 C 393.217 57.913 391.225 53.818 389.455 52.241 C 391.115 54.123 392.664 58.798 392.111 62.755 C 389.482 64.221 386.107 63.64 384.142 61.233 Z " fill="rgb(71,137,37)"/></g><g><path d=" M 374.126 150.988 C 372.19 144.708 377.613 139.866 376.119 135.881 C 381.459 136.822 384.613 141.941 386.245 147.281 C 387.213 150.462 385.553 153.838 382.51 155.055 C 383.755 151.376 383.478 146.838 382.455 144.708 C 383.285 147.087 382.953 151.984 380.933 155.443 C 377.945 155.775 375.04 153.976 374.126 150.988 Z " fill="rgb(43,186,53)"/></g><g><path d=" M 370.17 178.103 C 364.968 174.119 366.573 167.036 363.059 164.628 C 367.957 162.304 373.49 164.656 377.917 168.059 C 380.573 170.107 381.154 173.814 379.356 176.553 C 378.249 172.818 375.399 169.304 373.324 168.142 C 375.372 169.609 377.945 173.787 378.304 177.798 C 376.063 179.818 372.632 180.012 370.17 178.103 Z " fill="rgb(71,137,37)"/></g><g><path d=" M 394.877 178.324 C 401.435 178.656 404.146 185.379 408.407 185.324 C 405.723 190.028 399.802 191.245 394.241 190.968 C 390.893 190.802 388.292 188.091 388.209 184.798 C 391.253 187.233 395.597 188.506 397.949 188.257 C 395.431 188.229 390.921 186.237 388.375 183.166 C 389.067 180.289 391.751 178.158 394.877 178.324 Z " fill="rgb(149,219,14)"/></g><g><path d=" M 320.727 45.905 C 316.577 40.842 319.731 34.312 316.854 31.158 C 322.166 29.996 327.008 33.565 330.549 37.854 C 332.652 40.427 332.403 44.19 330.024 46.459 C 329.802 42.585 327.81 38.49 326.04 36.913 C 327.7 38.794 329.249 43.47 328.696 47.427 C 326.067 48.893 322.692 48.312 320.727 45.905 Z " fill="rgb(149,219,14)"/></g><g><path d=" M 354.123 67.901 C 359.684 64.415 358.743 57.221 362.506 55.146 C 357.858 52.352 352.103 54.178 347.399 57.138 C 344.577 58.909 343.636 62.561 345.158 65.466 C 346.625 61.87 349.779 58.632 351.964 57.664 C 349.779 58.937 346.818 62.866 346.099 66.794 C 348.119 69.008 351.494 69.534 354.123 67.901 Z " fill="rgb(149,219,14)"/></g><g><path d=" M 224.526 30.743 C 226.545 24.518 221.233 19.565 222.783 15.609 C 217.415 16.439 214.178 21.53 212.462 26.814 C 211.439 29.996 213.043 33.399 216.087 34.644 C 214.897 30.937 215.257 26.427 216.336 24.296 C 215.478 26.676 215.727 31.573 217.692 35.059 C 220.625 35.447 223.557 33.704 224.526 30.743 Z " fill="rgb(149,219,14)"/></g><g><path d=" M 241.292 49.64 C 246.328 45.435 244.419 38.435 247.822 35.862 C 242.842 33.731 237.391 36.332 233.13 39.929 C 230.585 42.087 230.142 45.822 232.051 48.478 C 232.992 44.715 235.704 41.063 237.723 39.818 C 235.731 41.368 233.352 45.656 233.158 49.668 C 235.482 51.605 238.913 51.66 241.292 49.64 Z " fill="rgb(71,137,37)"/></g><g><path d=" M 178.154 80.518 C 184.407 82.51 189.304 77.17 193.289 78.692 C 192.403 73.352 187.312 70.142 182 68.427 C 178.818 67.403 175.443 69.036 174.198 72.079 C 177.877 70.862 182.415 71.194 184.545 72.245 C 182.166 71.387 177.269 71.664 173.783 73.656 C 173.423 76.672 175.194 79.577 178.154 80.518 Z " fill="rgb(149,219,14)"/></g><g><path d=" M 192.708 111.174 C 199.237 110.621 201.7 103.787 205.988 103.676 C 203.111 99.083 197.19 98.059 191.628 98.557 C 188.308 98.834 185.791 101.656 185.846 104.949 C 188.779 102.403 193.095 100.964 195.474 101.13 C 192.957 101.269 188.53 103.399 186.095 106.581 C 186.842 109.431 189.609 111.423 192.708 111.174 Z " fill="rgb(43,186,53)"/></g><g><path d=" M 227.099 116.763 C 232.909 119.834 238.664 115.407 242.316 117.621 C 242.399 112.198 237.945 108.13 233.02 105.53 C 230.059 103.98 226.435 104.976 224.692 107.771 C 228.538 107.217 232.937 108.352 234.846 109.763 C 232.66 108.518 227.791 107.909 224 109.265 C 223.087 112.115 224.332 115.324 227.099 116.763 Z " fill="rgb(43,186,53)"/></g><g><path d=" M 284.676 45.96 C 291.178 45.13 293.364 38.186 297.624 37.881 C 294.553 33.399 288.577 32.652 283.071 33.372 C 279.751 33.787 277.372 36.719 277.538 39.984 C 280.36 37.328 284.593 35.696 286.972 35.751 C 284.455 36 280.138 38.324 277.814 41.589 C 278.727 44.466 281.577 46.376 284.676 45.96 Z " fill="rgb(43,186,53)"/></g><g><path d=" M 321.364 97.534 C 327.921 97.727 331.158 91.225 335.391 91.585 C 333.067 86.688 327.285 85 321.723 84.862 C 318.375 84.779 315.581 87.269 315.249 90.534 C 318.458 88.348 322.885 87.407 325.237 87.85 C 322.719 87.684 318.071 89.316 315.277 92.194 C 315.747 95.154 318.265 97.451 321.364 97.534 Z " fill="rgb(43,186,53)"/></g><g><path d=" M 348.451 84.862 C 355.008 85.055 358.245 78.553 362.478 78.913 C 360.154 74.016 354.372 72.328 348.81 72.19 C 345.462 72.107 342.668 74.597 342.336 77.862 C 345.545 75.676 349.972 74.735 352.324 75.178 C 349.806 75.012 345.158 76.644 342.364 79.522 C 342.834 82.455 345.352 84.779 348.451 84.862 Z " fill="rgb(43,186,53)"/></g><g><path d=" M 440.917 117.565 C 447.474 117.814 450.767 111.34 455 111.755 C 452.731 106.83 446.949 105.115 441.387 104.893 C 438.04 104.755 435.217 107.245 434.858 110.51 C 438.095 108.352 442.522 107.466 444.874 107.909 C 442.356 107.715 437.708 109.293 434.885 112.142 C 435.3 115.103 437.791 117.455 440.917 117.565 Z " fill="rgb(43,186,53)"/></g><g><path d=" M 366.02 123.154 C 362.174 128.466 365.743 134.802 363.059 138.095 C 368.427 138.925 373.047 135.079 376.312 130.569 C 378.277 127.858 377.779 124.123 375.261 122.02 C 375.261 125.893 373.545 130.099 371.885 131.787 C 373.435 129.794 374.708 125.036 373.877 121.107 C 371.166 119.834 367.846 120.636 366.02 123.154 Z " fill="rgb(43,186,53)"/></g><g><path d=" M 363.502 189.668 C 360.32 195.423 364.636 201.261 362.368 204.858 C 367.791 205.051 371.941 200.652 374.625 195.783 C 376.229 192.85 375.289 189.225 372.549 187.427 C 373.02 191.273 371.83 195.644 370.364 197.553 C 371.664 195.395 372.356 190.526 371.083 186.735 C 368.206 185.767 364.996 186.929 363.502 189.668 Z " fill="rgb(43,186,53)"/></g><g><path d=" M 331.047 198.937 C 330.854 205.494 337.328 208.731 336.968 212.992 C 341.866 210.668 343.553 204.885 343.719 199.324 C 343.83 195.976 341.312 193.182 338.047 192.822 C 340.233 196.032 341.146 200.486 340.731 202.81 C 340.897 200.292 339.292 195.644 336.415 192.85 C 333.455 193.32 331.13 195.838 331.047 198.937 Z " fill="rgb(149,219,14)"/></g><g><path d=" M 429.13 139.285 C 435.688 139.478 438.925 132.976 443.186 133.336 C 440.862 128.439 435.079 126.751 429.518 126.585 C 426.17 126.502 423.375 128.992 423.016 132.257 C 426.225 130.071 430.68 129.13 433.004 129.573 C 430.486 129.407 425.838 131.04 423.043 133.917 C 423.486 136.905 426.004 139.202 429.13 139.285 Z " fill="rgb(43,186,53)"/></g><g><path d=" M 401.767 160.589 C 408.296 159.925 410.648 153.063 414.909 152.87 C 411.976 148.304 406 147.419 400.466 147.972 C 397.146 148.304 394.684 151.154 394.767 154.447 C 397.672 151.846 401.933 150.352 404.312 150.462 C 401.794 150.628 397.423 152.842 395.016 156.051 C 395.874 158.929 398.668 160.893 401.767 160.589 Z " fill="rgb(71,137,37)"/></g><g><path d=" M 119.083 158.874 C 112.526 159.123 109.233 152.648 105 153.063 C 107.269 148.138 113.051 146.423 118.613 146.202 C 121.96 146.063 124.783 148.553 125.142 151.818 C 121.905 149.66 117.478 148.775 115.126 149.217 C 117.644 149.024 122.292 150.601 125.115 153.451 C 124.7 156.439 122.209 158.763 119.083 158.874 Z " fill="rgb(43,186,53)"/></g><g><path d=" M 149.573 173.372 C 151.178 179.735 145.561 184.3 146.834 188.368 C 141.549 187.178 138.644 181.893 137.289 176.498 C 136.458 173.261 138.285 169.968 141.411 168.917 C 139.972 172.542 140.028 177.051 140.968 179.265 C 140.277 176.83 140.83 171.96 143.016 168.613 C 146.004 168.391 148.798 170.356 149.573 173.372 Z " fill="rgb(43,186,53)"/></g><g><path d=" M 183.522 179.735 C 186.206 185.711 181.447 191.19 183.411 194.98 C 177.988 194.704 174.225 190 171.957 184.909 C 170.601 181.866 171.818 178.324 174.723 176.747 C 173.921 180.565 174.779 185.02 176.051 187.012 C 174.945 184.743 174.668 179.846 176.245 176.166 C 179.178 175.474 182.249 176.913 183.522 179.735 Z " fill="rgb(149,219,14)"/></g><g><path d=" M 246.715 222.676 C 244.059 228.68 236.81 228.818 235.316 232.802 C 231.885 228.597 232.854 222.648 235.095 217.557 C 236.451 214.514 239.909 213.047 243.008 214.126 C 239.66 216.091 236.893 219.688 236.285 221.984 C 237.225 219.632 240.684 216.146 244.474 214.846 C 246.964 216.589 247.988 219.854 246.715 222.676 Z " fill="rgb(43,186,53)"/></g><g><path d=" M 211.826 85.304 C 207.676 80.241 210.83 73.711 207.925 70.557 C 213.209 69.395 218.079 72.937 221.621 77.253 C 223.751 79.826 223.474 83.589 221.095 85.858 C 220.846 81.984 218.881 77.889 217.111 76.312 C 218.771 78.194 220.348 82.87 219.767 86.826 C 217.166 88.293 213.818 87.711 211.826 85.304 Z " fill="rgb(71,137,37)"/></g></g><path d=" M 252.18 381.934 L 305.793 381.934 L 305.793 391.719 L 252.18 391.719 L 252.18 381.934 L 252.18 381.934 Z  M 252.18 412.227 L 305.793 412.227 L 305.793 421.953 L 252.18 421.953 L 252.18 412.227 L 252.18 412.227 Z " fill-rule="evenodd" fill="rgb(70,70,70)"/><path d=" M 23.88 492.399 L 23.88 492.399 L 23.88 492.399 Q 23.88 489.959 24.6 488.039 L 24.6 488.039 L 24.6 488.039 Q 25.32 486.119 26.5 484.779 L 26.5 484.779 L 26.5 484.779 Q 27.68 483.439 29.2 482.719 L 29.2 482.719 L 29.2 482.719 Q 30.72 481.999 32.36 481.999 L 32.36 481.999 L 32.36 481.999 Q 34.08 481.999 35.24 482.579 L 35.24 482.579 L 35.24 482.579 Q 36.4 483.159 37.44 484.119 L 37.44 484.119 L 37.24 481.039 L 37.24 474.279 L 43.12 474.279 L 43.12 502.319 L 38.32 502.319 L 37.88 500.279 L 37.76 500.279 L 37.76 500.279 Q 36.64 501.359 35.2 502.079 L 35.2 502.079 L 35.2 502.079 Q 33.76 502.799 32.24 502.799 L 32.24 502.799 L 32.24 502.799 Q 30.36 502.799 28.82 502.079 L 28.82 502.079 L 28.82 502.079 Q 27.28 501.359 26.18 500.019 L 26.18 500.019 L 26.18 500.019 Q 25.08 498.679 24.48 496.759 L 24.48 496.759 L 24.48 496.759 Q 23.88 494.839 23.88 492.399 Z  M 29.92 492.319 L 29.92 492.319 L 29.92 492.319 Q 29.92 495.279 30.92 496.639 L 30.92 496.639 L 30.92 496.639 Q 31.92 497.999 33.76 497.999 L 33.76 497.999 L 33.76 497.999 Q 34.76 497.999 35.6 497.579 L 35.6 497.579 L 35.6 497.579 Q 36.44 497.159 37.24 496.159 L 37.24 496.159 L 37.24 488.119 L 37.24 488.119 Q 36.44 487.399 35.62 487.099 L 35.62 487.099 L 35.62 487.099 Q 34.8 486.799 33.92 486.799 L 33.92 486.799 L 33.92 486.799 Q 32.28 486.799 31.1 488.159 L 31.1 488.159 L 31.1 488.159 Q 29.92 489.519 29.92 492.319 Z  M 45.44 496.799 L 45.44 496.799 L 45.44 496.799 Q 45.44 495.119 46.16 493.859 L 46.16 493.859 L 46.16 493.859 Q 46.88 492.599 48.46 491.719 L 48.46 491.719 L 48.46 491.719 Q 50.04 490.839 52.52 490.299 L 52.52 490.299 L 52.52 490.299 Q 55 489.759 58.52 489.559 L 58.52 489.559 L 58.52 489.559 Q 58.36 488.199 57.34 487.439 L 57.34 487.439 L 57.34 487.439 Q 56.32 486.679 54.28 486.679 L 54.28 486.679 L 54.28 486.679 Q 52.84 486.679 51.38 487.179 L 51.38 487.179 L 51.38 487.179 Q 49.92 487.679 48.24 488.519 L 48.24 488.519 L 46.16 484.679 L 46.16 484.679 Q 48.2 483.519 50.54 482.759 L 50.54 482.759 L 50.54 482.759 Q 52.88 481.999 55.44 481.999 L 55.44 481.999 L 55.44 481.999 Q 59.6 481.999 62 484.199 L 62 484.199 L 62 484.199 Q 64.4 486.399 64.4 490.959 L 64.4 490.959 L 64.4 502.319 L 59.6 502.319 L 59.16 500.079 L 59 500.079 L 59 500.079 Q 57.48 501.239 55.68 502.019 L 55.68 502.019 L 55.68 502.019 Q 53.88 502.799 51.96 502.799 L 51.96 502.799 L 51.96 502.799 Q 50.44 502.799 49.24 502.339 L 49.24 502.339 L 49.24 502.339 Q 48.04 501.879 47.2 501.059 L 47.2 501.059 L 47.2 501.059 Q 46.36 500.239 45.9 499.159 L 45.9 499.159 L 45.9 499.159 Q 45.44 498.079 45.44 496.799 Z  M 51.08 496.359 L 51.08 496.359 L 51.08 496.359 Q 51.08 497.319 51.82 497.779 L 51.82 497.779 L 51.82 497.779 Q 52.56 498.239 53.84 498.239 L 53.84 498.239 L 53.84 498.239 Q 55.16 498.239 56.32 497.699 L 56.32 497.699 L 56.32 497.699 Q 57.48 497.159 58.52 496.359 L 58.52 496.359 L 58.52 493.079 L 58.52 493.079 Q 56.32 493.199 54.88 493.479 L 54.88 493.479 L 54.88 493.479 Q 53.44 493.759 52.6 494.179 L 52.6 494.179 L 52.6 494.179 Q 51.76 494.599 51.42 495.159 L 51.42 495.159 L 51.42 495.159 Q 51.08 495.719 51.08 496.359 Z  M 70.96 494.079 L 70.96 487.079 L 65.96 487.079 L 65.96 482.719 L 71.24 482.479 L 72 477.199 L 76.84 477.199 L 76.84 482.479 L 85.24 482.479 L 85.24 487.079 L 76.84 487.079 L 76.84 494.039 L 76.84 494.039 Q 76.84 496.319 77.84 497.259 L 77.84 497.259 L 77.84 497.259 Q 78.84 498.199 81 498.199 L 81 498.199 L 81 498.199 Q 82.16 498.199 83.12 497.999 L 83.12 497.999 L 83.12 497.999 Q 84.08 497.799 84.96 497.479 L 84.96 497.479 L 86 501.719 L 86 501.719 Q 84.68 502.119 83.06 502.459 L 83.06 502.459 L 83.06 502.459 Q 81.44 502.799 79.52 502.799 L 79.52 502.799 L 79.52 502.799 Q 77.16 502.799 75.52 502.159 L 75.52 502.159 L 75.52 502.159 Q 73.88 501.519 72.86 500.379 L 72.86 500.379 L 72.86 500.379 Q 71.84 499.239 71.4 497.639 L 71.4 497.639 L 71.4 497.639 Q 70.96 496.039 70.96 494.079 L 70.96 494.079 L 70.96 494.079 Z  M 87.44 496.799 L 87.44 496.799 L 87.44 496.799 Q 87.44 495.119 88.16 493.859 L 88.16 493.859 L 88.16 493.859 Q 88.88 492.599 90.46 491.719 L 90.46 491.719 L 90.46 491.719 Q 92.04 490.839 94.52 490.299 L 94.52 490.299 L 94.52 490.299 Q 97 489.759 100.52 489.559 L 100.52 489.559 L 100.52 489.559 Q 100.36 488.199 99.34 487.439 L 99.34 487.439 L 99.34 487.439 Q 98.32 486.679 96.28 486.679 L 96.28 486.679 L 96.28 486.679 Q 94.84 486.679 93.38 487.179 L 93.38 487.179 L 93.38 487.179 Q 91.92 487.679 90.24 488.519 L 90.24 488.519 L 88.16 484.679 L 88.16 484.679 Q 90.2 483.519 92.54 482.759 L 92.54 482.759 L 92.54 482.759 Q 94.88 481.999 97.44 481.999 L 97.44 481.999 L 97.44 481.999 Q 101.6 481.999 104 484.199 L 104 484.199 L 104 484.199 Q 106.4 486.399 106.4 490.959 L 106.4 490.959 L 106.4 502.319 L 101.6 502.319 L 101.16 500.079 L 101 500.079 L 101 500.079 Q 99.48 501.239 97.68 502.019 L 97.68 502.019 L 97.68 502.019 Q 95.88 502.799 93.96 502.799 L 93.96 502.799 L 93.96 502.799 Q 92.44 502.799 91.24 502.339 L 91.24 502.339 L 91.24 502.339 Q 90.04 501.879 89.2 501.059 L 89.2 501.059 L 89.2 501.059 Q 88.36 500.239 87.9 499.159 L 87.9 499.159 L 87.9 499.159 Q 87.44 498.079 87.44 496.799 Z  M 93.08 496.359 L 93.08 496.359 L 93.08 496.359 Q 93.08 497.319 93.82 497.779 L 93.82 497.779 L 93.82 497.779 Q 94.56 498.239 95.84 498.239 L 95.84 498.239 L 95.84 498.239 Q 97.16 498.239 98.32 497.699 L 98.32 497.699 L 98.32 497.699 Q 99.48 497.159 100.52 496.359 L 100.52 496.359 L 100.52 493.079 L 100.52 493.079 Q 98.32 493.199 96.88 493.479 L 96.88 493.479 L 96.88 493.479 Q 95.44 493.759 94.6 494.179 L 94.6 494.179 L 94.6 494.179 Q 93.76 494.599 93.42 495.159 L 93.42 495.159 L 93.42 495.159 Q 93.08 495.719 93.08 496.359 Z " fill-rule="evenodd" fill="rgb(162,162,162)"/><path d=" M 136.04 502.319 L 136.04 481.199 L 128.24 481.199 L 128.24 476.239 L 149.76 476.239 L 149.76 481.199 L 141.96 481.199 L 141.96 502.319 L 136.04 502.319 L 136.04 502.319 Z  M 152.64 502.319 L 152.64 482.479 L 157.44 482.479 L 157.92 486.799 L 158.04 486.799 L 158.04 486.799 Q 159.52 484.359 161.6 483.179 L 161.6 483.179 L 161.6 483.179 Q 163.68 481.999 166.08 481.999 L 166.08 481.999 L 166.08 481.999 Q 167.4 481.999 168.22 482.199 L 168.22 482.199 L 168.22 482.199 Q 169.04 482.399 169.92 482.799 L 169.92 482.799 L 168.72 487.719 L 168.72 487.719 Q 167.8 487.439 167.06 487.299 L 167.06 487.299 L 167.06 487.299 Q 166.32 487.159 165.2 487.159 L 165.2 487.159 L 165.2 487.159 Q 163.36 487.159 161.58 488.239 L 161.58 488.239 L 161.58 488.239 Q 159.8 489.319 158.52 491.999 L 158.52 491.999 L 158.52 502.319 L 152.64 502.319 L 152.64 502.319 Z  M 171.2 492.399 L 171.2 492.399 L 171.2 492.399 Q 171.2 489.959 172.06 488.039 L 172.06 488.039 L 172.06 488.039 Q 172.92 486.119 174.36 484.779 L 174.36 484.779 L 174.36 484.779 Q 175.8 483.439 177.66 482.719 L 177.66 482.719 L 177.66 482.719 Q 179.52 481.999 181.52 481.999 L 181.52 481.999 L 181.52 481.999 Q 183.8 481.999 185.56 482.719 L 185.56 482.719 L 185.56 482.719 Q 187.32 483.439 188.48 484.719 L 188.48 484.719 L 188.48 484.719 Q 189.64 485.999 190.24 487.739 L 190.24 487.739 L 190.24 487.739 Q 190.84 489.479 190.84 491.519 L 190.84 491.519 L 190.84 491.519 Q 190.84 492.319 190.76 493.039 L 190.76 493.039 L 190.76 493.039 Q 190.68 493.759 190.6 494.119 L 190.6 494.119 L 177.24 494.119 L 177.24 494.119 Q 177.56 496.359 179.18 497.339 L 179.18 497.339 L 179.18 497.339 Q 180.8 498.319 183 498.319 L 183 498.319 L 183 498.319 Q 184.36 498.319 185.58 497.979 L 185.58 497.979 L 185.58 497.979 Q 186.8 497.639 188.12 496.959 L 188.12 496.959 L 190.04 500.479 L 190.04 500.479 Q 188.36 501.559 186.28 502.179 L 186.28 502.179 L 186.28 502.179 Q 184.2 502.799 182.2 502.799 L 182.2 502.799 L 182.2 502.799 Q 179.88 502.799 177.88 502.099 L 177.88 502.099 L 177.88 502.099 Q 175.88 501.399 174.4 500.059 L 174.4 500.059 L 174.4 500.059 Q 172.92 498.719 172.06 496.799 L 172.06 496.799 L 172.06 496.799 Q 171.2 494.879 171.2 492.399 Z  M 177.16 490.239 L 185.52 490.239 L 185.52 490.239 Q 185.52 488.559 184.6 487.519 L 184.6 487.519 L 184.6 487.519 Q 183.68 486.479 181.64 486.479 L 181.64 486.479 L 181.64 486.479 Q 180.04 486.479 178.8 487.399 L 178.8 487.399 L 178.8 487.399 Q 177.56 488.319 177.16 490.239 L 177.16 490.239 L 177.16 490.239 Z  M 192.2 492.399 L 192.2 492.399 L 192.2 492.399 Q 192.2 489.959 193.06 488.039 L 193.06 488.039 L 193.06 488.039 Q 193.92 486.119 195.36 484.779 L 195.36 484.779 L 195.36 484.779 Q 196.8 483.439 198.66 482.719 L 198.66 482.719 L 198.66 482.719 Q 200.52 481.999 202.52 481.999 L 202.52 481.999 L 202.52 481.999 Q 204.8 481.999 206.56 482.719 L 206.56 482.719 L 206.56 482.719 Q 208.32 483.439 209.48 484.719 L 209.48 484.719 L 209.48 484.719 Q 210.64 485.999 211.24 487.739 L 211.24 487.739 L 211.24 487.739 Q 211.84 489.479 211.84 491.519 L 211.84 491.519 L 211.84 491.519 Q 211.84 492.319 211.76 493.039 L 211.76 493.039 L 211.76 493.039 Q 211.68 493.759 211.6 494.119 L 211.6 494.119 L 198.24 494.119 L 198.24 494.119 Q 198.56 496.359 200.18 497.339 L 200.18 497.339 L 200.18 497.339 Q 201.8 498.319 204 498.319 L 204 498.319 L 204 498.319 Q 205.36 498.319 206.58 497.979 L 206.58 497.979 L 206.58 497.979 Q 207.8 497.639 209.12 496.959 L 209.12 496.959 L 211.04 500.479 L 211.04 500.479 Q 209.36 501.559 207.28 502.179 L 207.28 502.179 L 207.28 502.179 Q 205.2 502.799 203.2 502.799 L 203.2 502.799 L 203.2 502.799 Q 200.88 502.799 198.88 502.099 L 198.88 502.099 L 198.88 502.099 Q 196.88 501.399 195.4 500.059 L 195.4 500.059 L 195.4 500.059 Q 193.92 498.719 193.06 496.799 L 193.06 496.799 L 193.06 496.799 Q 192.2 494.879 192.2 492.399 Z  M 198.16 490.239 L 206.52 490.239 L 206.52 490.239 Q 206.52 488.559 205.6 487.519 L 205.6 487.519 L 205.6 487.519 Q 204.68 486.479 202.64 486.479 L 202.64 486.479 L 202.64 486.479 Q 201.04 486.479 199.8 487.399 L 199.8 487.399 L 199.8 487.399 Q 198.56 488.319 198.16 490.239 L 198.16 490.239 L 198.16 490.239 Z " fill-rule="evenodd" fill="rgb(89,28,6)"/><path d=" M 234.44 496.799 L 234.44 496.799 L 234.44 496.799 Q 234.44 495.119 235.16 493.859 L 235.16 493.859 L 235.16 493.859 Q 235.88 492.599 237.46 491.719 L 237.46 491.719 L 237.46 491.719 Q 239.04 490.839 241.52 490.299 L 241.52 490.299 L 241.52 490.299 Q 244 489.759 247.52 489.559 L 247.52 489.559 L 247.52 489.559 Q 247.36 488.199 246.34 487.439 L 246.34 487.439 L 246.34 487.439 Q 245.32 486.679 243.28 486.679 L 243.28 486.679 L 243.28 486.679 Q 241.84 486.679 240.38 487.179 L 240.38 487.179 L 240.38 487.179 Q 238.92 487.679 237.24 488.519 L 237.24 488.519 L 235.16 484.679 L 235.16 484.679 Q 237.2 483.519 239.54 482.759 L 239.54 482.759 L 239.54 482.759 Q 241.88 481.999 244.44 481.999 L 244.44 481.999 L 244.44 481.999 Q 248.6 481.999 251 484.199 L 251 484.199 L 251 484.199 Q 253.4 486.399 253.4 490.959 L 253.4 490.959 L 253.4 502.319 L 248.6 502.319 L 248.16 500.079 L 248 500.079 L 248 500.079 Q 246.48 501.239 244.68 502.019 L 244.68 502.019 L 244.68 502.019 Q 242.88 502.799 240.96 502.799 L 240.96 502.799 L 240.96 502.799 Q 239.44 502.799 238.24 502.339 L 238.24 502.339 L 238.24 502.339 Q 237.04 501.879 236.2 501.059 L 236.2 501.059 L 236.2 501.059 Q 235.36 500.239 234.9 499.159 L 234.9 499.159 L 234.9 499.159 Q 234.44 498.079 234.44 496.799 Z  M 240.08 496.359 L 240.08 496.359 L 240.08 496.359 Q 240.08 497.319 240.82 497.779 L 240.82 497.779 L 240.82 497.779 Q 241.56 498.239 242.84 498.239 L 242.84 498.239 L 242.84 498.239 Q 244.16 498.239 245.32 497.699 L 245.32 497.699 L 245.32 497.699 Q 246.48 497.159 247.52 496.359 L 247.52 496.359 L 247.52 493.079 L 247.52 493.079 Q 245.32 493.199 243.88 493.479 L 243.88 493.479 L 243.88 493.479 Q 242.44 493.759 241.6 494.179 L 241.6 494.179 L 241.6 494.179 Q 240.76 494.599 240.42 495.159 L 240.42 495.159 L 240.42 495.159 Q 240.08 495.719 240.08 496.359 Z " fill-rule="evenodd" fill="rgb(149,219,14)"/><path d=" M 66.8 536.839 L 66.8 532.679 L 85.2 532.679 L 85.2 536.839 L 66.8 536.839 L 66.8 536.839 Z  M 66.8 546.079 L 66.8 541.919 L 85.2 541.919 L 85.2 546.079 L 66.8 546.079 L 66.8 546.079 Z " fill-rule="evenodd" fill="rgb(89,28,6)"/><path d=" M 110.28 552.599 L 110.28 526.519 L 116.16 526.519 L 116.16 547.639 L 127.76 547.639 L 127.76 552.599 L 110.28 552.599 L 110.28 552.599 Z  M 129.2 542.679 L 129.2 542.679 L 129.2 542.679 Q 129.2 540.239 130.06 538.319 L 130.06 538.319 L 130.06 538.319 Q 130.92 536.399 132.36 535.059 L 132.36 535.059 L 132.36 535.059 Q 133.8 533.719 135.66 532.999 L 135.66 532.999 L 135.66 532.999 Q 137.52 532.279 139.52 532.279 L 139.52 532.279 L 139.52 532.279 Q 141.8 532.279 143.56 532.999 L 143.56 532.999 L 143.56 532.999 Q 145.32 533.719 146.48 534.999 L 146.48 534.999 L 146.48 534.999 Q 147.64 536.279 148.24 538.019 L 148.24 538.019 L 148.24 538.019 Q 148.84 539.759 148.84 541.799 L 148.84 541.799 L 148.84 541.799 Q 148.84 542.599 148.76 543.319 L 148.76 543.319 L 148.76 543.319 Q 148.68 544.039 148.6 544.399 L 148.6 544.399 L 135.24 544.399 L 135.24 544.399 Q 135.56 546.639 137.18 547.619 L 137.18 547.619 L 137.18 547.619 Q 138.8 548.599 141 548.599 L 141 548.599 L 141 548.599 Q 142.36 548.599 143.58 548.259 L 143.58 548.259 L 143.58 548.259 Q 144.8 547.919 146.12 547.239 L 146.12 547.239 L 148.04 550.759 L 148.04 550.759 Q 146.36 551.839 144.28 552.459 L 144.28 552.459 L 144.28 552.459 Q 142.2 553.079 140.2 553.079 L 140.2 553.079 L 140.2 553.079 Q 137.88 553.079 135.88 552.379 L 135.88 552.379 L 135.88 552.379 Q 133.88 551.679 132.4 550.339 L 132.4 550.339 L 132.4 550.339 Q 130.92 548.999 130.06 547.079 L 130.06 547.079 L 130.06 547.079 Q 129.2 545.159 129.2 542.679 Z  M 135.16 540.519 L 143.52 540.519 L 143.52 540.519 Q 143.52 538.839 142.6 537.799 L 142.6 537.799 L 142.6 537.799 Q 141.68 536.759 139.64 536.759 L 139.64 536.759 L 139.64 536.759 Q 138.04 536.759 136.8 537.679 L 136.8 537.679 L 136.8 537.679 Q 135.56 538.599 135.16 540.519 L 135.16 540.519 L 135.16 540.519 Z  M 150.44 547.079 L 150.44 547.079 L 150.44 547.079 Q 150.44 545.399 151.16 544.139 L 151.16 544.139 L 151.16 544.139 Q 151.88 542.879 153.46 541.999 L 153.46 541.999 L 153.46 541.999 Q 155.04 541.119 157.52 540.579 L 157.52 540.579 L 157.52 540.579 Q 160 540.039 163.52 539.839 L 163.52 539.839 L 163.52 539.839 Q 163.36 538.479 162.34 537.719 L 162.34 537.719 L 162.34 537.719 Q 161.32 536.959 159.28 536.959 L 159.28 536.959 L 159.28 536.959 Q 157.84 536.959 156.38 537.459 L 156.38 537.459 L 156.38 537.459 Q 154.92 537.959 153.24 538.799 L 153.24 538.799 L 151.16 534.959 L 151.16 534.959 Q 153.2 533.799 155.54 533.039 L 155.54 533.039 L 155.54 533.039 Q 157.88 532.279 160.44 532.279 L 160.44 532.279 L 160.44 532.279 Q 164.6 532.279 167 534.479 L 167 534.479 L 167 534.479 Q 169.4 536.679 169.4 541.239 L 169.4 541.239 L 169.4 552.599 L 164.6 552.599 L 164.16 550.359 L 164 550.359 L 164 550.359 Q 162.48 551.519 160.68 552.299 L 160.68 552.299 L 160.68 552.299 Q 158.88 553.079 156.96 553.079 L 156.96 553.079 L 156.96 553.079 Q 155.44 553.079 154.24 552.619 L 154.24 552.619 L 154.24 552.619 Q 153.04 552.159 152.2 551.339 L 152.2 551.339 L 152.2 551.339 Q 151.36 550.519 150.9 549.439 L 150.9 549.439 L 150.9 549.439 Q 150.44 548.359 150.44 547.079 Z  M 156.08 546.639 L 156.08 546.639 L 156.08 546.639 Q 156.08 547.599 156.82 548.059 L 156.82 548.059 L 156.82 548.059 Q 157.56 548.519 158.84 548.519 L 158.84 548.519 L 158.84 548.519 Q 160.16 548.519 161.32 547.979 L 161.32 547.979 L 161.32 547.979 Q 162.48 547.439 163.52 546.639 L 163.52 546.639 L 163.52 543.359 L 163.52 543.359 Q 161.32 543.479 159.88 543.759 L 159.88 543.759 L 159.88 543.759 Q 158.44 544.039 157.6 544.459 L 157.6 544.459 L 157.6 544.459 Q 156.76 544.879 156.42 545.439 L 156.42 545.439 L 156.42 545.439 Q 156.08 545.999 156.08 546.639 Z  M 192.4 525.159 L 191.28 529.479 L 191.28 529.479 Q 189.32 528.719 187.12 528.719 L 187.12 528.719 L 187.12 528.719 Q 185.2 528.719 184.3 529.559 L 184.3 529.559 L 184.3 529.559 Q 183.4 530.399 183.4 532.199 L 183.4 532.199 L 183.4 532.759 L 190.24 532.759 L 190.24 537.359 L 183.4 537.359 L 183.4 552.599 L 177.52 552.599 L 177.52 537.359 L 172.28 537.359 L 172.28 532.999 L 177.52 532.759 L 177.52 532.239 L 177.52 532.239 Q 177.52 530.519 178.04 529.039 L 178.04 529.039 L 178.04 529.039 Q 178.56 527.559 179.64 526.459 L 179.64 526.459 L 179.64 526.459 Q 180.72 525.359 182.4 524.719 L 182.4 524.719 L 182.4 524.719 Q 184.08 524.079 186.4 524.079 L 186.4 524.079 L 186.4 524.079 Q 188.12 524.079 189.62 524.399 L 189.62 524.399 L 189.62 524.399 Q 191.12 524.719 192.4 525.159 L 192.4 525.159 L 192.4 525.159 Z " fill-rule="evenodd" fill="rgb(43,186,53)"/><path d=" M 213.44 547.079 L 213.44 547.079 L 213.44 547.079 Q 213.44 545.399 214.16 544.139 L 214.16 544.139 L 214.16 544.139 Q 214.88 542.879 216.46 541.999 L 216.46 541.999 L 216.46 541.999 Q 218.04 541.119 220.52 540.579 L 220.52 540.579 L 220.52 540.579 Q 223 540.039 226.52 539.839 L 226.52 539.839 L 226.52 539.839 Q 226.36 538.479 225.34 537.719 L 225.34 537.719 L 225.34 537.719 Q 224.32 536.959 222.28 536.959 L 222.28 536.959 L 222.28 536.959 Q 220.84 536.959 219.38 537.459 L 219.38 537.459 L 219.38 537.459 Q 217.92 537.959 216.24 538.799 L 216.24 538.799 L 214.16 534.959 L 214.16 534.959 Q 216.2 533.799 218.54 533.039 L 218.54 533.039 L 218.54 533.039 Q 220.88 532.279 223.44 532.279 L 223.44 532.279 L 223.44 532.279 Q 227.6 532.279 230 534.479 L 230 534.479 L 230 534.479 Q 232.4 536.679 232.4 541.239 L 232.4 541.239 L 232.4 552.599 L 227.6 552.599 L 227.16 550.359 L 227 550.359 L 227 550.359 Q 225.48 551.519 223.68 552.299 L 223.68 552.299 L 223.68 552.299 Q 221.88 553.079 219.96 553.079 L 219.96 553.079 L 219.96 553.079 Q 218.44 553.079 217.24 552.619 L 217.24 552.619 L 217.24 552.619 Q 216.04 552.159 215.2 551.339 L 215.2 551.339 L 215.2 551.339 Q 214.36 550.519 213.9 549.439 L 213.9 549.439 L 213.9 549.439 Q 213.44 548.359 213.44 547.079 Z  M 219.08 546.639 L 219.08 546.639 L 219.08 546.639 Q 219.08 547.599 219.82 548.059 L 219.82 548.059 L 219.82 548.059 Q 220.56 548.519 221.84 548.519 L 221.84 548.519 L 221.84 548.519 Q 223.16 548.519 224.32 547.979 L 224.32 547.979 L 224.32 547.979 Q 225.48 547.439 226.52 546.639 L 226.52 546.639 L 226.52 543.359 L 226.52 543.359 Q 224.32 543.479 222.88 543.759 L 222.88 543.759 L 222.88 543.759 Q 221.44 544.039 220.6 544.459 L 220.6 544.459 L 220.6 544.459 Q 219.76 544.879 219.42 545.439 L 219.42 545.439 L 219.42 545.439 Q 219.08 545.999 219.08 546.639 Z " fill-rule="evenodd" fill="rgb(149,219,14)"/><path d=" M 226.68 610.039 L 226.68 610.039 L 226.68 610.039 Q 222.76 606.559 220.5 601.999 L 220.5 601.999 L 220.5 601.999 Q 218.24 597.439 218.24 591.759 L 218.24 591.759 L 218.24 591.759 Q 218.24 586.079 220.5 581.519 L 220.5 581.519 L 220.5 581.519 Q 222.76 576.959 226.68 573.479 L 226.68 573.479 L 229.96 576.079 L 229.96 576.079 Q 226.4 579.559 224.78 583.299 L 224.78 583.299 L 224.78 583.299 Q 223.16 587.039 223.16 591.759 L 223.16 591.759 L 223.16 591.759 Q 223.16 594.119 223.56 596.219 L 223.56 596.219 L 223.56 596.219 Q 223.96 598.319 224.78 600.239 L 224.78 600.239 L 224.78 600.239 Q 225.6 602.159 226.88 603.939 L 226.88 603.939 L 226.88 603.939 Q 228.16 605.719 229.96 607.439 L 229.96 607.439 L 226.68 610.039 L 226.68 610.039 Z  M 241.04 602.879 L 241.04 581.759 L 233.24 581.759 L 233.24 576.799 L 254.76 576.799 L 254.76 581.759 L 246.96 581.759 L 246.96 602.879 L 241.04 602.879 L 241.04 602.879 Z  M 257.64 602.879 L 257.64 583.039 L 262.44 583.039 L 262.92 587.359 L 263.04 587.359 L 263.04 587.359 Q 264.52 584.919 266.6 583.739 L 266.6 583.739 L 266.6 583.739 Q 268.68 582.559 271.08 582.559 L 271.08 582.559 L 271.08 582.559 Q 272.4 582.559 273.22 582.759 L 273.22 582.759 L 273.22 582.759 Q 274.04 582.959 274.92 583.359 L 274.92 583.359 L 273.72 588.279 L 273.72 588.279 Q 272.8 587.999 272.06 587.859 L 272.06 587.859 L 272.06 587.859 Q 271.32 587.719 270.2 587.719 L 270.2 587.719 L 270.2 587.719 Q 268.36 587.719 266.58 588.799 L 266.58 588.799 L 266.58 588.799 Q 264.8 589.879 263.52 592.559 L 263.52 592.559 L 263.52 602.879 L 257.64 602.879 L 257.64 602.879 Z  M 276.2 592.959 L 276.2 592.959 L 276.2 592.959 Q 276.2 590.519 277.06 588.599 L 277.06 588.599 L 277.06 588.599 Q 277.92 586.679 279.36 585.339 L 279.36 585.339 L 279.36 585.339 Q 280.8 583.999 282.66 583.279 L 282.66 583.279 L 282.66 583.279 Q 284.52 582.559 286.52 582.559 L 286.52 582.559 L 286.52 582.559 Q 288.8 582.559 290.56 583.279 L 290.56 583.279 L 290.56 583.279 Q 292.32 583.999 293.48 585.279 L 293.48 585.279 L 293.48 585.279 Q 294.64 586.559 295.24 588.299 L 295.24 588.299 L 295.24 588.299 Q 295.84 590.039 295.84 592.079 L 295.84 592.079 L 295.84 592.079 Q 295.84 592.879 295.76 593.599 L 295.76 593.599 L 295.76 593.599 Q 295.68 594.319 295.6 594.679 L 295.6 594.679 L 282.24 594.679 L 282.24 594.679 Q 282.56 596.919 284.18 597.899 L 284.18 597.899 L 284.18 597.899 Q 285.8 598.879 288 598.879 L 288 598.879 L 288 598.879 Q 289.36 598.879 290.58 598.539 L 290.58 598.539 L 290.58 598.539 Q 291.8 598.199 293.12 597.519 L 293.12 597.519 L 295.04 601.039 L 295.04 601.039 Q 293.36 602.119 291.28 602.739 L 291.28 602.739 L 291.28 602.739 Q 289.2 603.359 287.2 603.359 L 287.2 603.359 L 287.2 603.359 Q 284.88 603.359 282.88 602.659 L 282.88 602.659 L 282.88 602.659 Q 280.88 601.959 279.4 600.619 L 279.4 600.619 L 279.4 600.619 Q 277.92 599.279 277.06 597.359 L 277.06 597.359 L 277.06 597.359 Q 276.2 595.439 276.2 592.959 Z  M 282.16 590.799 L 290.52 590.799 L 290.52 590.799 Q 290.52 589.119 289.6 588.079 L 289.6 588.079 L 289.6 588.079 Q 288.68 587.039 286.64 587.039 L 286.64 587.039 L 286.64 587.039 Q 285.04 587.039 283.8 587.959 L 283.8 587.959 L 283.8 587.959 Q 282.56 588.879 282.16 590.799 L 282.16 590.799 L 282.16 590.799 Z  M 297.2 592.959 L 297.2 592.959 L 297.2 592.959 Q 297.2 590.519 298.06 588.599 L 298.06 588.599 L 298.06 588.599 Q 298.92 586.679 300.36 585.339 L 300.36 585.339 L 300.36 585.339 Q 301.8 583.999 303.66 583.279 L 303.66 583.279 L 303.66 583.279 Q 305.52 582.559 307.52 582.559 L 307.52 582.559 L 307.52 582.559 Q 309.8 582.559 311.56 583.279 L 311.56 583.279 L 311.56 583.279 Q 313.32 583.999 314.48 585.279 L 314.48 585.279 L 314.48 585.279 Q 315.64 586.559 316.24 588.299 L 316.24 588.299 L 316.24 588.299 Q 316.84 590.039 316.84 592.079 L 316.84 592.079 L 316.84 592.079 Q 316.84 592.879 316.76 593.599 L 316.76 593.599 L 316.76 593.599 Q 316.68 594.319 316.6 594.679 L 316.6 594.679 L 303.24 594.679 L 303.24 594.679 Q 303.56 596.919 305.18 597.899 L 305.18 597.899 L 305.18 597.899 Q 306.8 598.879 309 598.879 L 309 598.879 L 309 598.879 Q 310.36 598.879 311.58 598.539 L 311.58 598.539 L 311.58 598.539 Q 312.8 598.199 314.12 597.519 L 314.12 597.519 L 316.04 601.039 L 316.04 601.039 Q 314.36 602.119 312.28 602.739 L 312.28 602.739 L 312.28 602.739 Q 310.2 603.359 308.2 603.359 L 308.2 603.359 L 308.2 603.359 Q 305.88 603.359 303.88 602.659 L 303.88 602.659 L 303.88 602.659 Q 301.88 601.959 300.4 600.619 L 300.4 600.619 L 300.4 600.619 Q 298.92 599.279 298.06 597.359 L 298.06 597.359 L 298.06 597.359 Q 297.2 595.439 297.2 592.959 Z  M 303.16 590.799 L 311.52 590.799 L 311.52 590.799 Q 311.52 589.119 310.6 588.079 L 310.6 588.079 L 310.6 588.079 Q 309.68 587.039 307.64 587.039 L 307.64 587.039 L 307.64 587.039 Q 306.04 587.039 304.8 587.959 L 304.8 587.959 L 304.8 587.959 Q 303.56 588.879 303.16 590.799 L 303.16 590.799 L 303.16 590.799 Z  M 108.64 602.879 L 108.64 576.799 L 114.64 576.799 L 120.16 589.799 L 122.4 595.519 L 122.56 595.519 L 122.56 595.519 Q 122.36 593.439 122.04 590.879 L 122.04 590.879 L 122.04 590.879 Q 121.72 588.319 121.72 586.039 L 121.72 586.039 L 121.72 576.799 L 127.36 576.799 L 127.36 602.879 L 121.36 602.879 L 115.84 589.879 L 113.6 584.199 L 113.44 584.199 L 113.44 584.199 Q 113.64 586.359 113.96 588.839 L 113.96 588.839 L 113.96 588.839 Q 114.28 591.319 114.28 593.639 L 114.28 593.639 L 114.28 602.879 L 108.64 602.879 L 108.64 602.879 Z  M 128.88 592.959 L 128.88 592.959 L 128.88 592.959 Q 128.88 590.479 129.72 588.539 L 129.72 588.539 L 129.72 588.539 Q 130.56 586.599 131.98 585.279 L 131.98 585.279 L 131.98 585.279 Q 133.4 583.959 135.22 583.259 L 135.22 583.259 L 135.22 583.259 Q 137.04 582.559 139 582.559 L 139 582.559 L 139 582.559 Q 140.96 582.559 142.78 583.259 L 142.78 583.259 L 142.78 583.259 Q 144.6 583.959 146.02 585.279 L 146.02 585.279 L 146.02 585.279 Q 147.44 586.599 148.28 588.539 L 148.28 588.539 L 148.28 588.539 Q 149.12 590.479 149.12 592.959 L 149.12 592.959 L 149.12 592.959 Q 149.12 595.439 148.28 597.379 L 148.28 597.379 L 148.28 597.379 Q 147.44 599.319 146.02 600.639 L 146.02 600.639 L 146.02 600.639 Q 144.6 601.959 142.78 602.659 L 142.78 602.659 L 142.78 602.659 Q 140.96 603.359 139 603.359 L 139 603.359 L 139 603.359 Q 137.04 603.359 135.22 602.659 L 135.22 602.659 L 135.22 602.659 Q 133.4 601.959 131.98 600.639 L 131.98 600.639 L 131.98 600.639 Q 130.56 599.319 129.72 597.379 L 129.72 597.379 L 129.72 597.379 Q 128.88 595.439 128.88 592.959 Z  M 134.92 592.959 L 134.92 592.959 L 134.92 592.959 Q 134.92 595.559 135.94 597.079 L 135.94 597.079 L 135.94 597.079 Q 136.96 598.599 139 598.599 L 139 598.599 L 139 598.599 Q 141.04 598.599 142.06 597.079 L 142.06 597.079 L 142.06 597.079 Q 143.08 595.559 143.08 592.959 L 143.08 592.959 L 143.08 592.959 Q 143.08 590.359 142.06 588.839 L 142.06 588.839 L 142.06 588.839 Q 141.04 587.319 139 587.319 L 139 587.319 L 139 587.319 Q 136.96 587.319 135.94 588.839 L 135.94 588.839 L 135.94 588.839 Q 134.92 590.359 134.92 592.959 Z  M 149.88 592.959 L 149.88 592.959 L 149.88 592.959 Q 149.88 590.519 150.6 588.599 L 150.6 588.599 L 150.6 588.599 Q 151.32 586.679 152.5 585.339 L 152.5 585.339 L 152.5 585.339 Q 153.68 583.999 155.2 583.279 L 155.2 583.279 L 155.2 583.279 Q 156.72 582.559 158.36 582.559 L 158.36 582.559 L 158.36 582.559 Q 160.08 582.559 161.24 583.139 L 161.24 583.139 L 161.24 583.139 Q 162.4 583.719 163.44 584.679 L 163.44 584.679 L 163.24 581.599 L 163.24 574.839 L 169.12 574.839 L 169.12 602.879 L 164.32 602.879 L 163.88 600.839 L 163.76 600.839 L 163.76 600.839 Q 162.64 601.919 161.2 602.639 L 161.2 602.639 L 161.2 602.639 Q 159.76 603.359 158.24 603.359 L 158.24 603.359 L 158.24 603.359 Q 156.36 603.359 154.82 602.639 L 154.82 602.639 L 154.82 602.639 Q 153.28 601.919 152.18 600.579 L 152.18 600.579 L 152.18 600.579 Q 151.08 599.239 150.48 597.319 L 150.48 597.319 L 150.48 597.319 Q 149.88 595.399 149.88 592.959 Z  M 155.92 592.879 L 155.92 592.879 L 155.92 592.879 Q 155.92 595.839 156.92 597.199 L 156.92 597.199 L 156.92 597.199 Q 157.92 598.559 159.76 598.559 L 159.76 598.559 L 159.76 598.559 Q 160.76 598.559 161.6 598.139 L 161.6 598.139 L 161.6 598.139 Q 162.44 597.719 163.24 596.719 L 163.24 596.719 L 163.24 588.679 L 163.24 588.679 Q 162.44 587.959 161.62 587.659 L 161.62 587.659 L 161.62 587.659 Q 160.8 587.359 159.92 587.359 L 159.92 587.359 L 159.92 587.359 Q 158.28 587.359 157.1 588.719 L 157.1 588.719 L 157.1 588.719 Q 155.92 590.079 155.92 592.879 Z  M 171.2 592.959 L 171.2 592.959 L 171.2 592.959 Q 171.2 590.519 172.06 588.599 L 172.06 588.599 L 172.06 588.599 Q 172.92 586.679 174.36 585.339 L 174.36 585.339 L 174.36 585.339 Q 175.8 583.999 177.66 583.279 L 177.66 583.279 L 177.66 583.279 Q 179.52 582.559 181.52 582.559 L 181.52 582.559 L 181.52 582.559 Q 183.8 582.559 185.56 583.279 L 185.56 583.279 L 185.56 583.279 Q 187.32 583.999 188.48 585.279 L 188.48 585.279 L 188.48 585.279 Q 189.64 586.559 190.24 588.299 L 190.24 588.299 L 190.24 588.299 Q 190.84 590.039 190.84 592.079 L 190.84 592.079 L 190.84 592.079 Q 190.84 592.879 190.76 593.599 L 190.76 593.599 L 190.76 593.599 Q 190.68 594.319 190.6 594.679 L 190.6 594.679 L 177.24 594.679 L 177.24 594.679 Q 177.56 596.919 179.18 597.899 L 179.18 597.899 L 179.18 597.899 Q 180.8 598.879 183 598.879 L 183 598.879 L 183 598.879 Q 184.36 598.879 185.58 598.539 L 185.58 598.539 L 185.58 598.539 Q 186.8 598.199 188.12 597.519 L 188.12 597.519 L 190.04 601.039 L 190.04 601.039 Q 188.36 602.119 186.28 602.739 L 186.28 602.739 L 186.28 602.739 Q 184.2 603.359 182.2 603.359 L 182.2 603.359 L 182.2 603.359 Q 179.88 603.359 177.88 602.659 L 177.88 602.659 L 177.88 602.659 Q 175.88 601.959 174.4 600.619 L 174.4 600.619 L 174.4 600.619 Q 172.92 599.279 172.06 597.359 L 172.06 597.359 L 172.06 597.359 Q 171.2 595.439 171.2 592.959 Z  M 177.16 590.799 L 185.52 590.799 L 185.52 590.799 Q 185.52 589.119 184.6 588.079 L 184.6 588.079 L 184.6 588.079 Q 183.68 587.039 181.64 587.039 L 181.64 587.039 L 181.64 587.039 Q 180.04 587.039 178.8 587.959 L 178.8 587.959 L 178.8 587.959 Q 177.56 588.879 177.16 590.799 L 177.16 590.799 L 177.16 590.799 Z  M 73.4 612.879 L 73.4 572.879 L 78.6 572.879 L 78.6 612.879 L 73.4 612.879 L 73.4 612.879 Z " fill-rule="evenodd" fill="rgb(89,28,6)"/><path d=" M 339.44 597.359 L 339.44 597.359 L 339.44 597.359 Q 339.44 595.679 340.16 594.419 L 340.16 594.419 L 340.16 594.419 Q 340.88 593.159 342.46 592.279 L 342.46 592.279 L 342.46 592.279 Q 344.04 591.399 346.52 590.859 L 346.52 590.859 L 346.52 590.859 Q 349 590.319 352.52 590.119 L 352.52 590.119 L 352.52 590.119 Q 352.36 588.759 351.34 587.999 L 351.34 587.999 L 351.34 587.999 Q 350.32 587.239 348.28 587.239 L 348.28 587.239 L 348.28 587.239 Q 346.84 587.239 345.38 587.739 L 345.38 587.739 L 345.38 587.739 Q 343.92 588.239 342.24 589.079 L 342.24 589.079 L 340.16 585.239 L 340.16 585.239 Q 342.2 584.079 344.54 583.319 L 344.54 583.319 L 344.54 583.319 Q 346.88 582.559 349.44 582.559 L 349.44 582.559 L 349.44 582.559 Q 353.6 582.559 356 584.759 L 356 584.759 L 356 584.759 Q 358.4 586.959 358.4 591.519 L 358.4 591.519 L 358.4 602.879 L 353.6 602.879 L 353.16 600.639 L 353 600.639 L 353 600.639 Q 351.48 601.799 349.68 602.579 L 349.68 602.579 L 349.68 602.579 Q 347.88 603.359 345.96 603.359 L 345.96 603.359 L 345.96 603.359 Q 344.44 603.359 343.24 602.899 L 343.24 602.899 L 343.24 602.899 Q 342.04 602.439 341.2 601.619 L 341.2 601.619 L 341.2 601.619 Q 340.36 600.799 339.9 599.719 L 339.9 599.719 L 339.9 599.719 Q 339.44 598.639 339.44 597.359 Z  M 345.08 596.919 L 345.08 596.919 L 345.08 596.919 Q 345.08 597.879 345.82 598.339 L 345.82 598.339 L 345.82 598.339 Q 346.56 598.799 347.84 598.799 L 347.84 598.799 L 347.84 598.799 Q 349.16 598.799 350.32 598.259 L 350.32 598.259 L 350.32 598.259 Q 351.48 597.719 352.52 596.919 L 352.52 596.919 L 352.52 593.639 L 352.52 593.639 Q 350.32 593.759 348.88 594.039 L 348.88 594.039 L 348.88 594.039 Q 347.44 594.319 346.6 594.739 L 346.6 594.739 L 346.6 594.739 Q 345.76 595.159 345.42 595.719 L 345.42 595.719 L 345.42 595.719 Q 345.08 596.279 345.08 596.919 Z " fill-rule="evenodd" fill="rgb(149,219,14)"/><path d=" M 415.68 610.039 L 415.68 610.039 L 415.68 610.039 Q 411.76 606.559 409.5 601.999 L 409.5 601.999 L 409.5 601.999 Q 407.24 597.439 407.24 591.759 L 407.24 591.759 L 407.24 591.759 Q 407.24 586.079 409.5 581.519 L 409.5 581.519 L 409.5 581.519 Q 411.76 576.959 415.68 573.479 L 415.68 573.479 L 418.96 576.079 L 418.96 576.079 Q 415.4 579.559 413.78 583.299 L 413.78 583.299 L 413.78 583.299 Q 412.16 587.039 412.16 591.759 L 412.16 591.759 L 412.16 591.759 Q 412.16 594.119 412.56 596.219 L 412.56 596.219 L 412.56 596.219 Q 412.96 598.319 413.78 600.239 L 413.78 600.239 L 413.78 600.239 Q 414.6 602.159 415.88 603.939 L 415.88 603.939 L 415.88 603.939 Q 417.16 605.719 418.96 607.439 L 418.96 607.439 L 415.68 610.039 L 415.68 610.039 Z  M 430.04 602.879 L 430.04 581.759 L 422.24 581.759 L 422.24 576.799 L 443.76 576.799 L 443.76 581.759 L 435.96 581.759 L 435.96 602.879 L 430.04 602.879 L 430.04 602.879 Z  M 446.64 602.879 L 446.64 583.039 L 451.44 583.039 L 451.92 587.359 L 452.04 587.359 L 452.04 587.359 Q 453.52 584.919 455.6 583.739 L 455.6 583.739 L 455.6 583.739 Q 457.68 582.559 460.08 582.559 L 460.08 582.559 L 460.08 582.559 Q 461.4 582.559 462.22 582.759 L 462.22 582.759 L 462.22 582.759 Q 463.04 582.959 463.92 583.359 L 463.92 583.359 L 462.72 588.279 L 462.72 588.279 Q 461.8 587.999 461.06 587.859 L 461.06 587.859 L 461.06 587.859 Q 460.32 587.719 459.2 587.719 L 459.2 587.719 L 459.2 587.719 Q 457.36 587.719 455.58 588.799 L 455.58 588.799 L 455.58 588.799 Q 453.8 589.879 452.52 592.559 L 452.52 592.559 L 452.52 602.879 L 446.64 602.879 L 446.64 602.879 Z  M 465.2 592.959 L 465.2 592.959 L 465.2 592.959 Q 465.2 590.519 466.06 588.599 L 466.06 588.599 L 466.06 588.599 Q 466.92 586.679 468.36 585.339 L 468.36 585.339 L 468.36 585.339 Q 469.8 583.999 471.66 583.279 L 471.66 583.279 L 471.66 583.279 Q 473.52 582.559 475.52 582.559 L 475.52 582.559 L 475.52 582.559 Q 477.8 582.559 479.56 583.279 L 479.56 583.279 L 479.56 583.279 Q 481.32 583.999 482.48 585.279 L 482.48 585.279 L 482.48 585.279 Q 483.64 586.559 484.24 588.299 L 484.24 588.299 L 484.24 588.299 Q 484.84 590.039 484.84 592.079 L 484.84 592.079 L 484.84 592.079 Q 484.84 592.879 484.76 593.599 L 484.76 593.599 L 484.76 593.599 Q 484.68 594.319 484.6 594.679 L 484.6 594.679 L 471.24 594.679 L 471.24 594.679 Q 471.56 596.919 473.18 597.899 L 473.18 597.899 L 473.18 597.899 Q 474.8 598.879 477 598.879 L 477 598.879 L 477 598.879 Q 478.36 598.879 479.58 598.539 L 479.58 598.539 L 479.58 598.539 Q 480.8 598.199 482.12 597.519 L 482.12 597.519 L 484.04 601.039 L 484.04 601.039 Q 482.36 602.119 480.28 602.739 L 480.28 602.739 L 480.28 602.739 Q 478.2 603.359 476.2 603.359 L 476.2 603.359 L 476.2 603.359 Q 473.88 603.359 471.88 602.659 L 471.88 602.659 L 471.88 602.659 Q 469.88 601.959 468.4 600.619 L 468.4 600.619 L 468.4 600.619 Q 466.92 599.279 466.06 597.359 L 466.06 597.359 L 466.06 597.359 Q 465.2 595.439 465.2 592.959 Z  M 471.16 590.799 L 479.52 590.799 L 479.52 590.799 Q 479.52 589.119 478.6 588.079 L 478.6 588.079 L 478.6 588.079 Q 477.68 587.039 475.64 587.039 L 475.64 587.039 L 475.64 587.039 Q 474.04 587.039 472.8 587.959 L 472.8 587.959 L 472.8 587.959 Q 471.56 588.879 471.16 590.799 L 471.16 590.799 L 471.16 590.799 Z  M 486.2 592.959 L 486.2 592.959 L 486.2 592.959 Q 486.2 590.519 487.06 588.599 L 487.06 588.599 L 487.06 588.599 Q 487.92 586.679 489.36 585.339 L 489.36 585.339 L 489.36 585.339 Q 490.8 583.999 492.66 583.279 L 492.66 583.279 L 492.66 583.279 Q 494.52 582.559 496.52 582.559 L 496.52 582.559 L 496.52 582.559 Q 498.8 582.559 500.56 583.279 L 500.56 583.279 L 500.56 583.279 Q 502.32 583.999 503.48 585.279 L 503.48 585.279 L 503.48 585.279 Q 504.64 586.559 505.24 588.299 L 505.24 588.299 L 505.24 588.299 Q 505.84 590.039 505.84 592.079 L 505.84 592.079 L 505.84 592.079 Q 505.84 592.879 505.76 593.599 L 505.76 593.599 L 505.76 593.599 Q 505.68 594.319 505.6 594.679 L 505.6 594.679 L 492.24 594.679 L 492.24 594.679 Q 492.56 596.919 494.18 597.899 L 494.18 597.899 L 494.18 597.899 Q 495.8 598.879 498 598.879 L 498 598.879 L 498 598.879 Q 499.36 598.879 500.58 598.539 L 500.58 598.539 L 500.58 598.539 Q 501.8 598.199 503.12 597.519 L 503.12 597.519 L 505.04 601.039 L 505.04 601.039 Q 503.36 602.119 501.28 602.739 L 501.28 602.739 L 501.28 602.739 Q 499.2 603.359 497.2 603.359 L 497.2 603.359 L 497.2 603.359 Q 494.88 603.359 492.88 602.659 L 492.88 602.659 L 492.88 602.659 Q 490.88 601.959 489.4 600.619 L 489.4 600.619 L 489.4 600.619 Q 487.92 599.279 487.06 597.359 L 487.06 597.359 L 487.06 597.359 Q 486.2 595.439 486.2 592.959 Z  M 492.16 590.799 L 500.52 590.799 L 500.52 590.799 Q 500.52 589.119 499.6 588.079 L 499.6 588.079 L 499.6 588.079 Q 498.68 587.039 496.64 587.039 L 496.64 587.039 L 496.64 587.039 Q 495.04 587.039 493.8 587.959 L 493.8 587.959 L 493.8 587.959 Q 492.56 588.879 492.16 590.799 L 492.16 590.799 L 492.16 590.799 Z  M 366.32 610.039 L 363.04 607.439 L 363.04 607.439 Q 364.84 605.719 366.12 603.939 L 366.12 603.939 L 366.12 603.939 Q 367.4 602.159 368.22 600.239 L 368.22 600.239 L 368.22 600.239 Q 369.04 598.319 369.44 596.219 L 369.44 596.219 L 369.44 596.219 Q 369.84 594.119 369.84 591.759 L 369.84 591.759 L 369.84 591.759 Q 369.84 587.039 368.22 583.299 L 368.22 583.299 L 368.22 583.299 Q 366.6 579.559 363.04 576.079 L 363.04 576.079 L 366.32 573.479 L 366.32 573.479 Q 370.24 576.959 372.5 581.519 L 372.5 581.519 L 372.5 581.519 Q 374.76 586.079 374.76 591.759 L 374.76 591.759 L 374.76 591.759 Q 374.76 597.439 372.5 601.999 L 372.5 601.999 L 372.5 601.999 Q 370.24 606.559 366.32 610.039 L 366.32 610.039 L 366.32 610.039 Z " fill-rule="evenodd" fill="rgb(89,28,6)"/><path d=" M 528.44 597.359 L 528.44 597.359 L 528.44 597.359 Q 528.44 595.679 529.16 594.419 L 529.16 594.419 L 529.16 594.419 Q 529.88 593.159 531.46 592.279 L 531.46 592.279 L 531.46 592.279 Q 533.04 591.399 535.52 590.859 L 535.52 590.859 L 535.52 590.859 Q 538 590.319 541.52 590.119 L 541.52 590.119 L 541.52 590.119 Q 541.36 588.759 540.34 587.999 L 540.34 587.999 L 540.34 587.999 Q 539.32 587.239 537.28 587.239 L 537.28 587.239 L 537.28 587.239 Q 535.84 587.239 534.38 587.739 L 534.38 587.739 L 534.38 587.739 Q 532.92 588.239 531.24 589.079 L 531.24 589.079 L 529.16 585.239 L 529.16 585.239 Q 531.2 584.079 533.54 583.319 L 533.54 583.319 L 533.54 583.319 Q 535.88 582.559 538.44 582.559 L 538.44 582.559 L 538.44 582.559 Q 542.6 582.559 545 584.759 L 545 584.759 L 545 584.759 Q 547.4 586.959 547.4 591.519 L 547.4 591.519 L 547.4 602.879 L 542.6 602.879 L 542.16 600.639 L 542 600.639 L 542 600.639 Q 540.48 601.799 538.68 602.579 L 538.68 602.579 L 538.68 602.579 Q 536.88 603.359 534.96 603.359 L 534.96 603.359 L 534.96 603.359 Q 533.44 603.359 532.24 602.899 L 532.24 602.899 L 532.24 602.899 Q 531.04 602.439 530.2 601.619 L 530.2 601.619 L 530.2 601.619 Q 529.36 600.799 528.9 599.719 L 528.9 599.719 L 528.9 599.719 Q 528.44 598.639 528.44 597.359 Z  M 534.08 596.919 L 534.08 596.919 L 534.08 596.919 Q 534.08 597.879 534.82 598.339 L 534.82 598.339 L 534.82 598.339 Q 535.56 598.799 536.84 598.799 L 536.84 598.799 L 536.84 598.799 Q 538.16 598.799 539.32 598.259 L 539.32 598.259 L 539.32 598.259 Q 540.48 597.719 541.52 596.919 L 541.52 596.919 L 541.52 593.639 L 541.52 593.639 Q 539.32 593.759 537.88 594.039 L 537.88 594.039 L 537.88 594.039 Q 536.44 594.319 535.6 594.739 L 535.6 594.739 L 535.6 594.739 Q 534.76 595.159 534.42 595.719 L 534.42 595.719 L 534.42 595.719 Q 534.08 596.279 534.08 596.919 Z " fill-rule="evenodd" fill="rgb(149,219,14)"/><path d=" M 555.32 610.039 L 552.04 607.439 L 552.04 607.439 Q 553.84 605.719 555.12 603.939 L 555.12 603.939 L 555.12 603.939 Q 556.4 602.159 557.22 600.239 L 557.22 600.239 L 557.22 600.239 Q 558.04 598.319 558.44 596.219 L 558.44 596.219 L 558.44 596.219 Q 558.84 594.119 558.84 591.759 L 558.84 591.759 L 558.84 591.759 Q 558.84 587.039 557.22 583.299 L 557.22 583.299 L 557.22 583.299 Q 555.6 579.559 552.04 576.079 L 552.04 576.079 L 555.32 573.479 L 555.32 573.479 Q 559.24 576.959 561.5 581.519 L 561.5 581.519 L 561.5 581.519 Q 563.76 586.079 563.76 591.759 L 563.76 591.759 L 563.76 591.759 Q 563.76 597.439 561.5 601.999 L 561.5 601.999 L 561.5 601.999 Q 559.24 606.559 555.32 610.039 L 555.32 610.039 L 555.32 610.039 Z " fill="rgb(89,28,6)"/></g></svg>