<?xml version="1.0" encoding="utf-8"?>
<svg version="1.1" id="Layer_1" xmlns="http://www.w3.org/2000/svg" xmlns:xlink="http://www.w3.org/1999/xlink" x="0px" y="0px"
	 viewBox="0 0 150 70.9" style="enable-background:new 0 0 150 70.9;" xml:space="preserve">
<style type="text/css">
	.st0{fill:#012639;}
	.st1{fill:#7D868C;}
	.st2{fill:#EC008C;}
	.st3{fill:#FFFFFF;}
</style>
<g>
	<path class="st0" d="M70.6,42.9c0-1.8,0.2-11.9,0-14c-0.2-2.1-0.4-3.6-1.3-4.7c-0.8-1.1-2.1-1.6-3.7-1.6c-1.5,0-2.8,0.5-3.7,1.6
		c-0.8,1.1-1.3,2.6-1.3,4.7c0,1.9-0.2,12.1,0,14s0.4,3.3,1.3,4.2c0.8,1,2.1,1.5,3.6,1.5s2.8-0.5,3.7-1.5
		C70,46.2,70.4,44.7,70.6,42.9L70.6,42.9z M75.5,42.9c-0.2,3.3-1,5.7-2.8,7.8c-1.9,2.1-4.2,3.1-7.2,3.1c-2.9,0-5.2-1-7.2-3.1
		c-1.9-2.1-2.6-4.6-2.8-7.8c-0.2-3.3,0-10.6,0-13.9c0-3.4,1-6.2,2.8-8.1c1.8-2.1,4.2-3.1,7.2-3.1c3.1,0,5.4,1,7.3,3.1
		c1.8,2.1,2.8,4.8,2.8,8.3C75.5,32.3,75.5,39.5,75.5,42.9L75.5,42.9z"/>
	<path class="st0" d="M96.8,28c0-1.6-0.4-3.1-1.3-3.9c-0.8-1-2.1-1.5-3.6-1.5S89.1,23,88.3,24c-0.8,1-1.3,2.3-1.3,3.9
		c0,1.6,0,5.7,0,5.7s3.3,0.2,4.9,0c1.6-0.2,2.9-0.5,3.7-1.5C96.4,31.3,96.8,29.9,96.8,28L96.8,28z M103.4,53.3h-5.7l-8-14.5h-2.8
		v14.5h-5.1V28c0-3.1,1-5.7,2.8-7.5c1.8-1.9,4.2-2.9,7.3-2.9c3.1,0,5.5,1,7.3,2.9c1.8,1.9,2.8,4.4,2.8,7.5c0,2.1-0.4,3.9-1.3,5.5
		c-0.8,1.6-2.1,2.9-3.6,3.9c-0.4,0.3-0.8,0.4-1.1,0.5c-0.3,0.2-0.7,0.3-1,0.3L103.4,53.3L103.4,53.3z"/>
	<polygon class="st0" points="124.2,23 116.6,23 116.6,53.3 111.7,53.3 111.7,23 104.1,23 104.1,18.1 124.2,18.1 	"/>
	<polygon class="st0" points="149.7,53.3 144.8,53.3 144.8,38 132.9,38 132.9,53.3 127.9,53.3 127.9,18.1 132.9,18.1 132.9,33.1
		144.8,33.1 144.8,18.1 149.7,18.1 	"/>
	<polygon class="st1" points="14.3,70.3 14.3,61 15.5,61 15.5,70.3 	"/>
	<polygon class="st1" points="18.4,61 20.2,61 24.6,68.5 24.6,61 25.7,61 25.7,70.3 24.2,70.3 19.6,62.3 19.6,70.3 18.4,70.3 	"/>
	<polygon class="st1" points="30.8,70.3 30.8,62.1 27.7,62.1 27.7,61 35.2,61 35.2,62.1 32.1,62.1 32.1,70.3 	"/>
	<polygon class="st1" points="37,61 42.9,61 42.9,62.1 38.3,62.1 38.3,64.9 42.6,64.9 42.6,65.9 38.3,65.9 38.3,69.1 42.9,69.1
		42.9,70.3 37,70.3 	"/>
	<path class="st1" d="M50.6,63.5c0-1.3-0.7-1.3-1.9-1.3H47v2.7h1.8C49.9,65,50.6,64.6,50.6,63.5L50.6,63.5z M45.5,61h3.3
		c2.1,0,3.1,0.8,3.1,2.5c0,1.1-0.7,1.9-1.6,2.2c0.8,0.3,1.1,0.5,1.3,1.3c0.2,0.8,0.2,1.9,0.5,3.3h-1.3c-0.4-1.5-0.3-2.6-0.5-3.3
		c-0.3-0.7-0.7-1-1.9-1H47v4.2h-1.3V61H45.5z"/>
	<polygon class="st1" points="54.6,61 56.4,61 60.8,68.5 60.8,61 62,61 62,70.3 60.5,70.3 55.8,62.3 55.8,70.3 54.6,70.3 	"/>
	<polygon class="st1" points="64.8,61 70.7,61 70.7,62.1 66,62.1 66,64.9 70.4,64.9 70.4,65.9 66,65.9 66,69.1 70.7,69.1 70.7,70.3
		64.8,70.3 	"/>
	<polygon class="st1" points="75.5,70.3 75.5,62.1 72.5,62.1 72.5,61 79.9,61 79.9,62.1 76.8,62.1 76.8,70.3 	"/>
	<path class="st1" d="M89.2,69.4c1.3,0,2.3-0.7,2.3-1.6c0-1.3-1-1.3-2.6-1.6c-0.8-0.3-1.5-0.4-2.1-0.7c-0.7-0.4-1-1.1-1-1.9
		c0-1.5,1.3-2.6,3.6-2.6c1.9,0,3.1,1,3.1,2.3v0.2h-1.3c0-1-0.7-1.3-1.9-1.3s-2.1,0.5-2.1,1.5c0,1,1,1.1,2.6,1.5
		c1.9,0.5,3.1,1,3.1,2.8c0,1.8-1.3,2.9-3.6,2.9s-3.6-0.8-3.6-2.8v-0.2h1.3C87.1,68.8,87.7,69.4,89.2,69.4L89.2,69.4z"/>
	<polygon class="st1" points="97.8,70.3 97.8,66.7 94.4,61 95.9,61 98.5,65.6 101.2,61 102.6,61 99,66.7 99,70.3 	"/>
	<path class="st1" d="M107.6,69.4c1.3,0,2.3-0.7,2.3-1.6c0-1.3-1-1.3-2.6-1.6c-0.8-0.3-1.5-0.4-2.1-0.7c-0.7-0.4-1-1.1-1-1.9
		c0-1.5,1.3-2.6,3.6-2.6c1.9,0,3.1,1,3.1,2.3v0.2h-1.3c0-1-0.7-1.3-1.9-1.3c-1.2,0-2.1,0.5-2.1,1.5c0,1,1,1.1,2.6,1.5
		c1.9,0.5,3.1,1,3.1,2.8c0,1.8-1.3,2.9-3.6,2.9s-3.6-0.8-3.6-2.8v-0.2h1.3C105.5,68.8,106.2,69.4,107.6,69.4L107.6,69.4z"/>
	<polygon class="st1" points="115.8,70.3 115.8,62.1 112.8,62.1 112.8,61 120.2,61 120.2,62.1 117.1,62.1 117.1,70.3 	"/>
	<polygon class="st1" points="122.1,61 127.9,61 127.9,62.1 123.3,62.1 123.3,64.9 127.7,64.9 127.7,65.9 123.3,65.9 123.3,69.1
		128,69.1 128,70.3 122.1,70.3 	"/>
	<polygon class="st1" points="139.1,62 136,70.3 134.9,70.3 131.9,62 131.9,70.3 130.6,70.3 130.6,61 132.7,61 135.5,68.5 138.3,61
		140.3,61 140.3,70.3 139.1,70.3 	"/>
	<path class="st1" d="M146.2,69.4c1.3,0,2.3-0.7,2.3-1.6c0-1.3-1-1.3-2.6-1.6c-0.8-0.3-1.5-0.4-2.1-0.7c-0.7-0.4-1-1.1-1-1.9
		c0-1.5,1.3-2.6,3.6-2.6c1.9,0,3.1,1,3.1,2.3v0.2h-1.3c0-1-0.7-1.3-1.9-1.3c-1.2,0-2.1,0.5-2.1,1.5c0,1,1,1.1,2.6,1.5
		c1.9,0.5,3.1,1,3.1,2.8c0,1.8-1.3,2.9-3.6,2.9c-2.3,0-3.6-0.8-3.6-2.8v-0.2h1.3C144.1,68.8,144.8,69.4,146.2,69.4L146.2,69.4z"/>
	<path class="st0" d="M46.6,19.2c-0.7,0.2-1.5,0.4-2.3,0.5c0,5.4,0,23,0,24.1c0,1.3-0.5,2.6-1.5,3.6c-1,1-2.2,1.5-3.6,1.5
		c-1.3,0-2.6-0.5-3.6-1.5c-1-1-1.3-2.2-1.5-3.6c0-1,0-14.5,0-21.5c-1.6,0.4-3.3,0.8-4.9,1.3c0,7.3,0,19.2,0,20.2
		c0,1.3-0.4,2.6-1.5,3.6c-1,1-2.2,1.5-3.4,1.5c-1.3,0-2.6-0.5-3.6-1.5c-1-1-1.3-2.2-1.5-3.6c0-0.8,0-9.9,0-17.1
		c-1,0.4-1.9,0.7-2.9,1.1c-0.7,0.3-1.3,0.5-2.1,0.8c0,6.5,0,13.6,0,15.2c0.2,2.8,1,5.1,2.9,7c1.9,1.9,4.2,2.9,7,2.9
		c1.3,0,2.8-0.3,3.9-1c1.3-0.5,2.5-1.3,3.4-2.5c1.3,1,2.5,1.8,3.9,2.3c1.3,0.5,2.6,1,3.9,1c2.8,0,5.1-1,7-2.9c1.9-1.9,2.8-4.2,2.9-7
		c0.2-2.6,0-22,0-25.1C48.4,18.8,47.6,18.9,46.6,19.2L46.6,19.2z"/>
	<path class="st2" d="M73.2,9.7l-23.3,5.4c-3.9,1-7.8,1.8-11.7,2.8c-3.9,1-7.7,1.9-11.6,3.1c-3.9,1.1-7.5,2.3-11.3,3.7
		C11.7,26,8,27.7,5.1,29.8c-1.3,1.1-2.6,2.6-2.8,3.9c-0.2,1.5,0.8,3.1,2.1,4.6c2.6,2.8,6.2,4.8,9.8,6.7c-1.9-0.5-3.9-1.3-5.7-2.2
		c-1.8-0.8-3.6-1.9-5.2-3.1c-0.8-0.7-1.5-1.5-2.2-2.5C0.5,36.2,0,35,0,33.8s0.4-2.5,1.1-3.4c0.5-1,1.3-1.8,2.2-2.6
		c1.6-1.5,3.3-2.6,5.2-3.6c1.8-1,3.7-1.9,5.5-2.8c3.7-1.5,7.7-2.9,11.6-3.9c7.8-2.2,15.7-3.9,23.6-5.2C57.1,10.9,65.1,10.1,73.2,9.7
		L73.2,9.7z"/>
	<path class="st1" d="M75,4.6c-0.5,0.3-1.1,0.5-1.6,0.8c0.4,1.3,0.7,2.6,1,3.9c0.3,1.3,0.4,2.8,0.5,3.9c0.5,0.2,1.3,0.2,1.8,0.2
		c0.2,2.5-0.8,4.9-1,5.1c0,0.2,8.7-1.5,9.9-5.2c0-0.2,0-0.2,0.2-0.3c0.7-0.2,1.3-0.2,1.9-0.3c9.8-1.8,16.6-8.8,16.6-8.8
		s-9-4.1-18.7-2.3c-0.7,0.2-1.3,0.3-1.9,0.4c0-0.2-0.2-0.2-0.2-0.3C81-1.1,72.2,0.4,72.4,0.6C72.4,0.4,74.2,2.4,75,4.6L75,4.6z"/>
	<path class="st3" d="M88.6,4.2c-1.3,0.3-2.3,1.5-2.1,2.9c0.3,1.3,1.5,2.3,2.9,2.1c1.3-0.3,2.3-1.5,2.1-2.9
		C91.3,4.9,90,3.9,88.6,4.2L88.6,4.2z"/>
</g>
</svg>
